{
  "accessors": [
    {
      "bufferView": 2,
      "componentType": 5126,
      "count": 65532,
      "max": [
        0.3082568645477295,
        0.947377622127533,
        0.19925011694431305
      ],
      "min": [
        -0.31047898530960083,
        -0.9506661295890808,
        -0.17901431024074554
      ],
      "type": "VEC3"
    },
    {
      "bufferView": 2,
      "byteOffset": 786384,
      "componentType": 5126,
      "count": 65532,
      "max": [
        0.9999690055847168,
        0.9999690055847168,
        0.9999690055847168
      ],
      "min": [
        -0.9999690055847168,
        -1.0,
        -0.9999380111694336
      ],
      "type": "VEC3"
    },
    {
      "bufferView": 3,
      "componentType": 5126,
      "count": 65532,
      "max": [
        0.9999312162399292,
        0.9999735355377197,
        0.9998658299446106,
        1.0
      ],
      "min": [
        -0.9999914765357971,
        -0.9999933242797852,
        -0.9999688267707825,
        -1.0
      ],
      "type": "VEC4"
    },
    {
      "bufferView": 1,
      "componentType": 5126,
      "count": 65532,
      "max": [
        0.9967217445373535,
        0.9999732971191406
      ],
      "min": [
        0.00010041852510767058,
        0.0017303605563938618
      ],
      "type": "VEC2"
    },
    {
      "bufferView": 1,
      "byteOffset": 524256,
      "componentType": 5126,
      "count": 65532,
      "max": [
        0.9967217445373535,
        0.9999732971191406
      ],
      "min": [
        0.00010041852510767058,
        0.0017303605563938618
      ],
      "type": "VEC2"
    },
    {
      "bufferView": 1,
      "byteOffset": 1048512,
      "componentType": 5126,
      "count": 65532,
      "max": [
        0.9967217445373535,
        0.9999732971191406
      ],
      "min": [
        0.00010041852510767058,
        0.0017303605563938618
      ],
      "type": "VEC2"
    },
    {
      "bufferView": 1,
      "byteOffset": 1572768,
      "componentType": 5126,
      "count": 65532,
      "max": [
        0.9967217445373535,
        0.9999732971191406
      ],
      "min": [
        0.00010041852510767058,
        0.0017303605563938618
      ],
      "type": "VEC2"
    },
    {
      "bufferView": 1,
      "byteOffset": 2097024,
      "componentType": 5126,
      "count": 65532,
      "max": [
        0.9967217445373535,
        0.9999732971191406
      ],
      "min": [
        0.00010041852510767058,
        0.0017303605563938618
      ],
      "type": "VEC2"
    },
    {
      "bufferView": 0,
      "componentType": 5125,
      "count": 323952,
      "type": "SCALAR"
    },
    {
      "bufferView": 2,
      "byteOffset": 1572768,
      "componentType": 5126,
      "count": 65532,
      "max": [
        0.3039689362049103,
        0.9479570984840393,
        0.1207927018404007
      ],
      "min": [
        -0.28301310539245605,
        -0.9506661295890808,
        -0.1992950290441513
      ],
      "type": "VEC3"
    },
    {
      "bufferView": 2,
      "byteOffset": 2359152,
      "componentType": 5126,
      "count": 65532,
      "max": [
        1.0,
        0.9999690055847168,
        0.9999690055847168
      ],
      "min": [
        -0.9999380111694336,
        -1.0,
        -0.9999690055847168
      ],
      "type": "VEC3"
    },
    {
      "bufferView": 3,
      "byteOffset": 1048512,
      "componentType": 5126,
      "count": 65532,
      "max": [
        0.9999125599861145,
        0.999998927116394,
        0.9999645352363586,
        1.0
      ],
      "min": [
        -0.9999411702156067,
        -0.9999960064888,
        -1.0,
        -1.0
      ],
      "type": "VEC4"
    },
    {
      "bufferView": 1,
      "byteOffset": 2621280,
      "componentType": 5126,
      "count": 65532,
      "max": [
        0.9967217445373535,
        0.9999732971191406
      ],
      "min": [
        0.00010041852510767058,
        2.104043960571289e-05
      ],
      "type": "VEC2"
    },
    {
      "bufferView": 1,
      "byteOffset": 3145536,
      "componentType": 5126,
      "count": 65532,
      "max": [
        0.9967217445373535,
        0.9999732971191406
      ],
      "min": [
        0.00010041852510767058,
        2.104043960571289e-05
      ],
      "type": "VEC2"
    },
    {
      "bufferView": 1,
      "byteOffset": 3669792,
      "componentType": 5126,
      "count": 65532,
      "max": [
        0.9967217445373535,
        0.9999732971191406
      ],
      "min": [
        0.00010041852510767058,
        2.104043960571289e-05
      ],
      "type": "VEC2"
    },
    {
      "bufferView": 1,
      "byteOffset": 4194048,
      "componentType": 5126,
      "count": 65532,
      "max": [
        0.9967217445373535,
        0.9999732971191406
      ],
      "min": [
        0.00010041852510767058,
        2.104043960571289e-05
      ],
      "type": "VEC2"
    },
    {
      "bufferView": 1,
      "byteOffset": 4718304,
      "componentType": 5126,
      "count": 65532,
      "max": [
        0.9967217445373535,
        0.9999732971191406
      ],
      "min": [
        0.00010041852510767058,
        2.104043960571289e-05
      ],
      "type": "VEC2"
    },
    {
      "bufferView": 0,
      "byteOffset": 1295808,
      "componentType": 5125,
      "count": 317622,
      "type": "SCALAR"
    },
    {
      "bufferView": 2,
      "byteOffset": 3145536,
      "componentType": 5126,
      "count": 427,
      "max": [
        0.3080250918865204,
        0.08063753694295883,
        0.06667214632034302
      ],
      "min": [
        -0.2602986991405487,
        -0.6074004173278809,
        -0.04133718088269234
      ],
      "type": "VEC3"
    },
    {
      "bufferView": 2,
      "byteOffset": 3150660,
      "componentType": 5126,
      "count": 427,
      "max": [
        0.9869480729103088,
        0.8439599871635437,
        0.9706729054450989
      ],
      "min": [
        -0.9917570948600769,
        -0.9995972514152527,
        -0.9515179395675659
      ],
      "type": "VEC3"
    },
    {
      "bufferView": 3,
      "byteOffset": 2097024,
      "componentType": 5126,
      "count": 427,
      "max": [
        0.9757035374641418,
        0.7784850597381592,
        0.9995957016944885,
        1.0
      ],
      "min": [
        -0.8192704319953918,
        -0.9911503195762634,
        -0.9953709244728088,
        -1.0
      ],
      "type": "VEC4"
    },
    {
      "bufferView": 1,
      "byteOffset": 5242560,
      "componentType": 5126,
      "count": 427,
      "max": [
        0.9723842144012451,
        0.9958221316337585
      ],
      "min": [
        0.07165271788835526,
        0.014672355726361275
      ],
      "type": "VEC2"
    },
    {
      "bufferView": 1,
      "byteOffset": 5245976,
      "componentType": 5126,
      "count": 427,
      "max": [
        0.9723842144012451,
        0.9958221316337585
      ],
      "min": [
        0.07165271788835526,
        0.014672355726361275
      ],
      "type": "VEC2"
    },
    {
      "bufferView": 1,
      "byteOffset": 5249392,
      "componentType": 5126,
      "count": 427,
      "max": [
        0.9723842144012451,
        0.9958221316337585
      ],
      "min": [
        0.07165271788835526,
        0.014672355726361275
      ],
      "type": "VEC2"
    },
    {
      "bufferView": 1,
      "byteOffset": 5252808,
      "componentType": 5126,
      "count": 427,
      "max": [
        0.9723842144012451,
        0.9958221316337585
      ],
      "min": [
        0.07165271788835526,
        0.014672355726361275
      ],
      "type": "VEC2"
    },
    {
      "bufferView": 1,
      "byteOffset": 5256224,
      "componentType": 5126,
      "count": 427,
      "max": [
        0.9723842144012451,
        0.9958221316337585
      ],
      "min": [
        0.07165271788835526,
        0.014672355726361275
      ],
      "type": "VEC2"
    },
    {
      "bufferView": 0,
      "byteOffset": 2566296,
      "componentType": 5125,
      "count": 1293,
      "type": "SCALAR"
    }
  ],
  "asset": {
    "extras": {
      "author": "restore50 (https://sketchfab.com/restore50)",
      "license": "CC-BY-4.0 (http://creativecommons.org/licenses/by/4.0/)",
      "source": "https://sketchfab.com/3d-models/teal-bikini-model-e4af186b6108457d928de207355e1031",
      "title": "Teal Bikini Model"
    },
    "generator": "Sketchfab-17.15.0",
    "version": "2.0"
  },
  "bufferViews": [
    {
      "buffer": 0,
      "byteLength": 2571468,
      "name": "floatBufferViews",
      "target": 34963
    },
    {
      "buffer": 0,
      "byteLength": 5259640,
      "byteOffset": 2571468,
      "byteStride": 8,
      "name": "floatBufferViews",
      "target": 34962
    },
    {
      "buffer": 0,
      "byteLength": 3155784,
      "byteOffset": 7831108,
      "byteStride": 12,
      "name": "floatBufferViews",
      "target": 34962
    },
    {
      "buffer": 0,
      "byteLength": 2103856,
      "byteOffset": 10986892,
      "byteStride": 16,
      "name": "floatBufferViews",
      "target": 34962
    }
  ],
  "buffers": [
    {
      "byteLength": 13090748,
      "uri": "scene.bin"
    }
  ],
  "images": [
    {
      "uri": "textures/material_0_baseColor.png"
    },
    {
      "uri": "textures/material_0_metallicRoughness.png"
    },
    {
      "uri": "textures/material_0_emissive.png"
    },
    {
      "uri": "textures/material_0_normal.png"
    }
  ],
  "materials": [
    {
      "doubleSided": true,
      "emissiveFactor": [
        1.0,
        1.0,
        1.0
      ],
      "emissiveTexture": {
        "index": 2,
        "texCoord": 2
      },
      "name": "material_0",
      "normalTexture": {
        "index": 3,
        "texCoord": 3
      },
      "pbrMetallicRoughness": {
        "baseColorTexture": {
          "index": 0
        },
        "metallicRoughnessTexture": {
          "index": 1,
          "texCoord": 1
        }
      }
    }
  ],
  "meshes": [
    {
      "name": "Object_0",
      "primitives": [
        {
          "attributes": {
            "NORMAL": 1,
            "POSITION": 0,
            "TANGENT": 2,
            "TEXCOORD_0": 3,
            "TEXCOORD_1": 4,
            "TEXCOORD_2": 5,
            "TEXCOORD_3": 6,
            "TEXCOORD_4": 7
          },
          "indices": 8,
          "material": 0,
          "mode": 4
        }
      ]
    },
    {
      "name": "Object_1",
      "primitives": [
        {
          "attributes": {
            "NORMAL": 10,
            "POSITION": 9,
            "TANGENT": 11,
            "TEXCOORD_0": 12,
            "TEXCOORD_1": 13,
            "TEXCOORD_2": 14,
            "TEXCOORD_3": 15,
            "TEXCOORD_4": 16
          },
          "indices": 17,
          "material": 0,
          "mode": 4
        }
      ]
    },
    {
      "name": "Object_2",
      "primitives": [
        {
          "attributes": {
            "NORMAL": 19,
            "POSITION": 18,
            "TANGENT": 20,
            "TEXCOORD_0": 21,
            "TEXCOORD_1": 22,
            "TEXCOORD_2": 23,
            "TEXCOORD_3": 24,
            "TEXCOORD_4": 25
          },
          "indices": 26,
          "material": 0,
          "mode": 4
        }
      ]
    }
  ],
  "nodes": [
    {
      "children": [
        1
      ],
      "matrix": [
        1.0,
        0.0,
        0.0,
        0.0,
        0.0,
        2.220446049250313e-16,
        -1.0,
        0.0,
        0.0,
        1.0,
        2.220446049250313e-16,
        0.0,
        0.0,
        0.0,
        0.0,
        1.0
      ],
      "name": "Sketchfab_model"
    },
    {
      "children": [
        2
      ],
      "name": "root"
    },
    {
      "children": [
        3
      ],
      "matrix": [
        1.0,
        0.0,
        0.0,
        0.0,
        0.0,
        2.220446049250313e-16,
        1.0,
        0.0,
        0.0,
        -1.0,
        2.220446049250313e-16,
        0.0,
        0.0,
        0.0,
        0.0,
        1.0
      ],
      "name": "GLTF_SceneRootNode"
    },
    {
      "children": [
        4
      ],
      "name": "_1"
    },
    {
      "children": [
        5,
        6,
        7
      ],
      "name": "mesh_0_0"
    },
    {
      "mesh": 0,
      "name": "Object_5"
    },
    {
      "mesh": 1,
      "name": "Object_6"
    },
    {
      "mesh": 2,
      "name": "Object_7"
    }
  ],
  "samplers": [
    {
      "magFilter": 9729,
      "minFilter": 9987,
      "wrapS": 10497,
      "wrapT": 10497
    }
  ],
  "scene": 0,
  "scenes": [
    {
      "name": "Sketchfab_Scene",
      "nodes": [
        0
      ]
    }
  ],
  "textures": [
    {
      "sampler": 0,
      "source": 0
    },
    {
      "sampler": 0,
      "source": 1
    },
    {
      "sampler": 0,
      "source": 2
    },
    {
      "sampler": 0,
      "source": 3
    }
  ]
}
