{
  "accessors": [
    {
      "bufferView": 3,
      "componentType": 5126,
      "count": 8552,
      "max": [
        1.2418292760849,
        1.7627266645431519,
        0.15342429280281067
      ],
      "min": [
        -0.3934990465641022,
        -0.005566830281168222,
        -0.18080522119998932
      ],
      "type": "VEC3"
    },
    {
      "bufferView": 3,
      "byteOffset": 102624,
      "componentType": 5126,
      "count": 8552,
      "max": [
        0.9999530911445618,
        0.9999498128890991,
        0.999971866607666
      ],
      "min": [
        -0.9998161196708679,
        -0.9996793866157532,
        -0.999959409236908
      ],
      "type": "VEC3"
    },
    {
      "bufferView": 4,
      "componentType": 5126,
      "count": 8552,
      "max": [
        0.999987006187439,
        0.9998648762702942,
        0.9998504519462585,
        1.0
      ],
      "min": [
        -0.9999867081642151,
        -0.9996518492698669,
        -0.999985933303833,
        -1.0
      ],
      "type": "VEC4"
    },
    {
      "bufferView": 2,
      "componentType": 5126,
      "count": 8552,
      "max": [
        0.9975343346595764,
        0.997825026512146
      ],
      "min": [
        0.011126999743282795,
        0.009244978427886963
      ],
      "type": "VEC2"
    },
    {
      "bufferView": 2,
      "byteOffset": 68416,
      "componentType": 5126,
      "count": 8552,
      "max": [
        0.993573009967804,
        0.9791769981384277
      ],
      "min": [
        0.0,
        -8.082389831542969e-05
      ],
      "type": "VEC2"
    },
    {
      "bufferView": 1,
      "componentType": 5125,
      "count": 44283,
      "type": "SCALAR"
    },
    {
      "bufferView": 3,
      "byteOffset": 205248,
      "componentType": 5126,
      "count": 26,
      "max": [
        373.4869384765625,
        198.7317657470703,
        198.7317657470703
      ],
      "min": [
        -373.4869384765625,
        -198.7317657470703,
        -198.7317657470703
      ],
      "type": "VEC3"
    },
    {
      "bufferView": 3,
      "byteOffset": 205560,
      "componentType": 5126,
      "count": 26,
      "max": [
        1.0,
        1.0,
        1.0
      ],
      "min": [
        -1.0,
        -1.0,
        -1.0
      ],
      "type": "VEC3"
    },
    {
      "bufferView": 2,
      "byteOffset": 136832,
      "componentType": 5126,
      "count": 26,
      "max": [
        0.8537616729736328,
        0.9999405145645142
      ],
      "min": [
        8.824467658996582e-05,
        0.00012868642807006836
      ],
      "type": "VEC2"
    },
    {
      "bufferView": 1,
      "byteOffset": 177132,
      "componentType": 5125,
      "count": 36,
      "type": "SCALAR"
    },
    {
      "bufferView": 5,
      "componentType": 5126,
      "count": 68,
      "max": [
        99.99999237060547,
        0.9994731545448303,
        0.734971284866333,
        0.0,
        0.6371912360191345,
        99.99999237060547,
        0.9994401931762695,
        0.0,
        0.9991586208343506,
        0.9982301592826843,
        99.99999237060547,
        0.0,
        0.7706806063652039,
        1.043470859527588,
        1.8327853679656982,
        1.0
      ],
      "min": [
        -0.9994786381721497,
        -0.9994727969169617,
        -0.7768682837486267,
        0.0,
        -0.680875301361084,
        -0.9960638880729675,
        -0.9986320734024048,
        0.0,
        -0.999158501625061,
        -0.347770094871521,
        -0.1088271290063858,
        0.0,
        -1.3012775182724,
        -1.4182785749435425,
        -0.14918187260627747,
        1.0
      ],
      "type": "MAT4"
    },
    {
      "bufferView": 0,
      "componentType": 5123,
      "count": 8552,
      "type": "VEC4"
    },
    {
      "bufferView": 4,
      "byteOffset": 136832,
      "componentType": 5126,
      "count": 8552,
      "max": [
        1.0,
        0.4989476501941681,
        0.27406516671180725,
        0.18994124233722687
      ],
      "min": [
        0.3219282925128937,
        0.0,
        0.0,
        0.0
      ],
      "type": "VEC4"
    },
    {
      "bufferView": 6,
      "componentType": 5126,
      "count": 148,
      "max": [
        3.25
      ],
      "min": [
        0.0416666679084301
      ],
      "type": "SCALAR"
    },
    {
      "bufferView": 8,
      "componentType": 5126,
      "count": 148,
      "max": [
        -0.01184454932808876,
        -0.05307137593626976,
        -0.031190818175673485,
        0.9980162978172302
      ],
      "min": [
        -0.013194342143833637,
        -0.05368614196777344,
        -0.03552500531077385,
        0.9978554248809814
      ],
      "type": "VEC4"
    },
    {
      "bufferView": 6,
      "byteOffset": 592,
      "componentType": 5126,
      "count": 129,
      "max": [
        3.2083332538604736
      ],
      "min": [
        0.0416666679084301
      ],
      "type": "SCALAR"
    },
    {
      "bufferView": 8,
      "byteOffset": 2368,
      "componentType": 5126,
      "count": 129,
      "max": [
        0.12319453805685043,
        0.2255432903766632,
        0.1436293125152588,
        0.9561648964881897
      ],
      "min": [
        0.12266777455806732,
        0.22477947175502777,
        0.14158368110656738,
        0.9558117389678955
      ],
      "type": "VEC4"
    },
    {
      "bufferView": 6,
      "byteOffset": 1108,
      "componentType": 5126,
      "count": 5,
      "max": [
        2.75
      ],
      "min": [
        2.5833332538604736
      ],
      "type": "SCALAR"
    },
    {
      "bufferView": 8,
      "byteOffset": 4432,
      "componentType": 5126,
      "count": 5,
      "max": [
        0.2805524170398712,
        0.030304117128252983,
        -0.02850465290248394,
        0.959105908870697
      ],
      "min": [
        0.2799732983112335,
        0.030286898836493492,
        -0.028522947803139687,
        0.9589366316795349
      ],
      "type": "VEC4"
    },
    {
      "bufferView": 6,
      "byteOffset": 1128,
      "componentType": 5126,
      "count": 149,
      "max": [
        3.25
      ],
      "min": [
        0.0416666679084301
      ],
      "type": "SCALAR"
    },
    {
      "bufferView": 8,
      "byteOffset": 4512,
      "componentType": 5126,
      "count": 149,
      "max": [
        0.3035929203033447,
        0.07176632434129715,
        -0.07259862124919891,
        0.9496606588363647
      ],
      "min": [
        0.29619643092155457,
        0.0713755413889885,
        -0.07516512274742126,
        0.947135865688324
      ],
      "type": "VEC4"
    },
    {
      "bufferView": 6,
      "byteOffset": 1724,
      "componentType": 5126,
      "count": 20,
      "max": [
        3.25
      ],
      "min": [
        2.5833332538604736
      ],
      "type": "SCALAR"
    },
    {
      "bufferView": 8,
      "byteOffset": 6896,
      "componentType": 5126,
      "count": 20,
      "max": [
        0.4039446711540222,
        0.032499730587005615,
        0.032319363206624985,
        0.9140070080757141
      ],
      "min": [
        0.40310338139533997,
        0.032469987869262695,
        0.03228945657610893,
        0.9136354923248291
      ],
      "type": "VEC4"
    },
    {
      "bufferView": 6,
      "byteOffset": 1804,
      "componentType": 5126,
      "count": 145,
      "max": [
        3.25
      ],
      "min": [
        0.0416666679084301
      ],
      "type": "SCALAR"
    },
    {
      "bufferView": 8,
      "byteOffset": 7216,
      "componentType": 5126,
      "count": 145,
      "max": [
        0.31247514486312866,
        0.06289219856262207,
        -0.0469982884824276,
        0.9488451480865479
      ],
      "min": [
        0.30585095286369324,
        0.062441106885671616,
        -0.04793217033147812,
        0.9466463923454285
      ],
      "type": "VEC4"
    },
    {
      "bufferView": 6,
      "byteOffset": 2384,
      "componentType": 5126,
      "count": 138,
      "max": [
        3.2083332538604736
      ],
      "min": [
        0.0416666679084301
      ],
      "type": "SCALAR"
    },
    {
      "bufferView": 8,
      "byteOffset": 9536,
      "componentType": 5126,
      "count": 138,
      "max": [
        0.5527262687683105,
        -0.004328512586653233,
        0.007581762038171291,
        0.83427494764328
      ],
      "min": [
        0.5512799024581909,
        -0.004384996835142374,
        0.007484260015189648,
        0.833317756652832
      ],
      "type": "VEC4"
    },
    {
      "bufferView": 6,
      "byteOffset": 2936,
      "componentType": 5126,
      "count": 147,
      "max": [
        3.25
      ],
      "min": [
        0.0416666679084301
      ],
      "type": "SCALAR"
    },
    {
      "bufferView": 8,
      "byteOffset": 11744,
      "componentType": 5126,
      "count": 147,
      "max": [
        0.3241161108016968,
        0.053122006356716156,
        0.0030727831181138754,
        0.9469015598297119
      ],
      "min": [
        0.3170919716358185,
        0.05250637233257294,
        0.0025779365096241236,
        0.9445554614067078
      ],
      "type": "VEC4"
    },
    {
      "bufferView": 6,
      "byteOffset": 3524,
      "componentType": 5126,
      "count": 18,
      "max": [
        3.0416667461395264
      ],
      "min": [
        2.5416667461395264
      ],
      "type": "SCALAR"
    },
    {
      "bufferView": 8,
      "byteOffset": 14096,
      "componentType": 5126,
      "count": 18,
      "max": [
        0.08745194226503372,
        0.009300570003688335,
        0.07343114167451859,
        0.9934151768684387
      ],
      "min": [
        0.08745133876800537,
        0.00929247960448265,
        0.07343042641878128,
        0.9934151768684387
      ],
      "type": "VEC4"
    },
    {
      "bufferView": 6,
      "byteOffset": 3596,
      "componentType": 5126,
      "count": 149,
      "max": [
        3.2083332538604736
      ],
      "min": [
        0.0416666679084301
      ],
      "type": "SCALAR"
    },
    {
      "bufferView": 8,
      "byteOffset": 14384,
      "componentType": 5126,
      "count": 149,
      "max": [
        0.3720327615737915,
        0.03981981799006462,
        -0.006214027758687735,
        0.9297477006912231
      ],
      "min": [
        0.36598020792007446,
        0.03941110149025917,
        -0.007141096517443657,
        0.9273554086685181
      ],
      "type": "VEC4"
    },
    {
      "bufferView": 6,
      "byteOffset": 4192,
      "componentType": 5126,
      "count": 150,
      "max": [
        3.25
      ],
      "min": [
        0.0416666679084301
      ],
      "type": "SCALAR"
    },
    {
      "bufferView": 8,
      "byteOffset": 16768,
      "componentType": 5126,
      "count": 150,
      "max": [
        -0.11347602307796478,
        -0.31100428104400635,
        -0.13277050852775574,
        0.9298470616340637
      ],
      "min": [
        -0.12312471121549606,
        -0.3361656069755554,
        -0.16049279272556305,
        0.9224303364753723
      ],
      "type": "VEC4"
    },
    {
      "bufferView": 6,
      "byteOffset": 4792,
      "componentType": 5126,
      "count": 149,
      "max": [
        3.25
      ],
      "min": [
        0.0416666679084301
      ],
      "type": "SCALAR"
    },
    {
      "bufferView": 8,
      "byteOffset": 19168,
      "componentType": 5126,
      "count": 149,
      "max": [
        -0.015882834792137146,
        -0.009039224125444889,
        0.2530977427959442,
        0.9743016958236694
      ],
      "min": [
        -0.017839960753917694,
        -0.009360327385365963,
        0.22449758648872375,
        0.9672332406044006
      ],
      "type": "VEC4"
    },
    {
      "bufferView": 6,
      "byteOffset": 5388,
      "componentType": 5126,
      "count": 151,
      "max": [
        3.25
      ],
      "min": [
        0.0416666679084301
      ],
      "type": "SCALAR"
    },
    {
      "bufferView": 8,
      "byteOffset": 21552,
      "componentType": 5126,
      "count": 151,
      "max": [
        0.5492932796478271,
        0.24769139289855957,
        0.2619042992591858,
        0.7675353288650513
      ],
      "min": [
        0.5391150712966919,
        0.22668275237083435,
        0.24762676656246185,
        0.7607077956199646
      ],
      "type": "VEC4"
    },
    {
      "bufferView": 6,
      "byteOffset": 5992,
      "componentType": 5126,
      "count": 131,
      "max": [
        3.25
      ],
      "min": [
        0.25
      ],
      "type": "SCALAR"
    },
    {
      "bufferView": 8,
      "byteOffset": 23968,
      "componentType": 5126,
      "count": 131,
      "max": [
        0.5259963870048523,
        0.49201375246047974,
        -0.5163652300834656,
        0.46636587381362915
      ],
      "min": [
        0.5232516527175903,
        0.4891163110733032,
        -0.5188740491867065,
        0.4635329246520996
      ],
      "type": "VEC4"
    },
    {
      "bufferView": 6,
      "byteOffset": 6516,
      "componentType": 5126,
      "count": 152,
      "max": [
        3.25
      ],
      "min": [
        0.0416666679084301
      ],
      "type": "SCALAR"
    },
    {
      "bufferView": 8,
      "byteOffset": 26064,
      "componentType": 5126,
      "count": 152,
      "max": [
        -0.013290452770888805,
        0.05368160083889961,
        0.044675324112176895,
        0.9983515739440918
      ],
      "min": [
        -0.02014475129544735,
        0.04560938850045204,
        0.01776888594031334,
        0.9974442720413208
      ],
      "type": "VEC4"
    },
    {
      "bufferView": 6,
      "byteOffset": 7124,
      "componentType": 5126,
      "count": 151,
      "max": [
        3.25
      ],
      "min": [
        0.0416666679084301
      ],
      "type": "SCALAR"
    },
    {
      "bufferView": 8,
      "byteOffset": 28496,
      "componentType": 5126,
      "count": 151,
      "max": [
        0.3166402280330658,
        -0.19140712916851044,
        -0.1271636039018631,
        0.9325129389762878
      ],
      "min": [
        0.23250053822994232,
        -0.21665264666080475,
        -0.2206789255142212,
        0.9069554209709167
      ],
      "type": "VEC4"
    },
    {
      "bufferView": 6,
      "byteOffset": 7728,
      "componentType": 5126,
      "count": 142,
      "max": [
        3.2083332538604736
      ],
      "min": [
        0.0416666679084301
      ],
      "type": "SCALAR"
    },
    {
      "bufferView": 8,
      "byteOffset": 30912,
      "componentType": 5126,
      "count": 142,
      "max": [
        0.5342631936073303,
        -0.05257505923509598,
        0.07616040855646133,
        0.9394019246101379
      ],
      "min": [
        0.3340536057949066,
        -0.05936887860298157,
        0.04913005605340004,
        0.840237021446228
      ],
      "type": "VEC4"
    },
    {
      "bufferView": 6,
      "byteOffset": 8296,
      "componentType": 5126,
      "count": 154,
      "max": [
        3.25
      ],
      "min": [
        0.0416666679084301
      ],
      "type": "SCALAR"
    },
    {
      "bufferView": 8,
      "byteOffset": 33184,
      "componentType": 5126,
      "count": 154,
      "max": [
        0.2739439308643341,
        -0.04831523075699806,
        0.11686991155147552,
        0.9982293248176575
      ],
      "min": [
        -0.0565713569521904,
        -0.05610419437289238,
        -0.007964789867401123,
        0.9531031847000122
      ],
      "type": "VEC4"
    },
    {
      "bufferView": 6,
      "byteOffset": 8912,
      "componentType": 5126,
      "count": 135,
      "max": [
        3.2083332538604736
      ],
      "min": [
        0.2083333283662796
      ],
      "type": "SCALAR"
    },
    {
      "bufferView": 8,
      "byteOffset": 35648,
      "componentType": 5126,
      "count": 135,
      "max": [
        0.6406608819961548,
        0.14500492811203003,
        0.1817111372947693,
        0.8883516192436218
      ],
      "min": [
        0.4174727499485016,
        0.11606759577989578,
        0.12463878840208054,
        0.7369281053543091
      ],
      "type": "VEC4"
    },
    {
      "bufferView": 6,
      "byteOffset": 9452,
      "componentType": 5126,
      "count": 152,
      "max": [
        3.25
      ],
      "min": [
        0.0833333358168602
      ],
      "type": "SCALAR"
    },
    {
      "bufferView": 8,
      "byteOffset": 37808,
      "componentType": 5126,
      "count": 152,
      "max": [
        0.5773975849151611,
        -0.049931660294532776,
        0.10631030797958374,
        0.9627821445465088
      ],
      "min": [
        0.25781548023223877,
        -0.05497588589787483,
        0.061577193439006805,
        0.8079708814620972
      ],
      "type": "VEC4"
    },
    {
      "bufferView": 6,
      "byteOffset": 10060,
      "componentType": 5126,
      "count": 135,
      "max": [
        3.2083332538604736
      ],
      "min": [
        0.2083333283662796
      ],
      "type": "SCALAR"
    },
    {
      "bufferView": 8,
      "byteOffset": 40240,
      "componentType": 5126,
      "count": 135,
      "max": [
        0.6877667307853699,
        0.008459973149001598,
        -0.02040020562708378,
        0.8981533050537109
      ],
      "min": [
        0.4391310513019562,
        0.002505457727238536,
        -0.02189759537577629,
        0.7255957126617432
      ],
      "type": "VEC4"
    },
    {
      "bufferView": 6,
      "byteOffset": 10600,
      "componentType": 5126,
      "count": 149,
      "max": [
        3.25
      ],
      "min": [
        0.125
      ],
      "type": "SCALAR"
    },
    {
      "bufferView": 8,
      "byteOffset": 42400,
      "componentType": 5126,
      "count": 149,
      "max": [
        0.6124213337898254,
        -0.06327046453952789,
        0.04817618429660797,
        0.9427728652954102
      ],
      "min": [
        0.3199843168258667,
        -0.09104464203119278,
        0.007210502866655588,
        0.7865071892738342
      ],
      "type": "VEC4"
    },
    {
      "bufferView": 6,
      "byteOffset": 11196,
      "componentType": 5126,
      "count": 138,
      "max": [
        3.25
      ],
      "min": [
        0.25
      ],
      "type": "SCALAR"
    },
    {
      "bufferView": 8,
      "byteOffset": 44784,
      "componentType": 5126,
      "count": 138,
      "max": [
        0.8682816028594971,
        0.013558472506701946,
        -0.057556793093681335,
        0.8433414697647095
      ],
      "min": [
        0.534252405166626,
        -0.006059094797819853,
        -0.06393324583768845,
        0.49176111817359924
      ],
      "type": "VEC4"
    },
    {
      "bufferView": 6,
      "byteOffset": 11748,
      "componentType": 5126,
      "count": 154,
      "max": [
        3.25
      ],
      "min": [
        0.0416666679084301
      ],
      "type": "SCALAR"
    },
    {
      "bufferView": 8,
      "byteOffset": 46992,
      "componentType": 5126,
      "count": 154,
      "max": [
        0.550432562828064,
        -0.03980862349271774,
        0.054234378039836884,
        0.9379054307937622
      ],
      "min": [
        0.3404848277568817,
        -0.05763870105147362,
        0.03148170933127403,
        0.8326610326766968
      ],
      "type": "VEC4"
    },
    {
      "bufferView": 6,
      "byteOffset": 12364,
      "componentType": 5126,
      "count": 154,
      "max": [
        3.25
      ],
      "min": [
        0.0416666679084301
      ],
      "type": "SCALAR"
    },
    {
      "bufferView": 8,
      "byteOffset": 49456,
      "componentType": 5126,
      "count": 154,
      "max": [
        -0.07821270823478699,
        0.15091319382190704,
        0.1488770693540573,
        0.996648371219635
      ],
      "min": [
        -0.4241378903388977,
        -0.16540874540805817,
        -0.07563748210668564,
        0.8894366025924683
      ],
      "type": "VEC4"
    },
    {
      "bufferView": 6,
      "byteOffset": 12980,
      "componentType": 5126,
      "count": 154,
      "max": [
        3.25
      ],
      "min": [
        0.0416666679084301
      ],
      "type": "SCALAR"
    },
    {
      "bufferView": 8,
      "byteOffset": 51920,
      "componentType": 5126,
      "count": 154,
      "max": [
        -0.018506281077861786,
        0.009174719452857971,
        -0.26163768768310547,
        0.9649452567100525
      ],
      "min": [
        -0.049934566020965576,
        0.007725974544882774,
        -0.6995306611061096,
        0.7128139138221741
      ],
      "type": "VEC4"
    },
    {
      "bufferView": 6,
      "byteOffset": 13596,
      "componentType": 5126,
      "count": 154,
      "max": [
        3.25
      ],
      "min": [
        0.0416666679084301
      ],
      "type": "SCALAR"
    },
    {
      "bufferView": 8,
      "byteOffset": 54384,
      "componentType": 5126,
      "count": 154,
      "max": [
        0.5811643004417419,
        -0.03502589464187622,
        -0.1444009393453598,
        0.847662627696991
      ],
      "min": [
        0.4684176445007324,
        -0.23185031116008759,
        -0.2521613836288452,
        0.7856345772743225
      ],
      "type": "VEC4"
    },
    {
      "bufferView": 6,
      "byteOffset": 14212,
      "componentType": 5126,
      "count": 143,
      "max": [
        3.25
      ],
      "min": [
        0.2083333283662796
      ],
      "type": "SCALAR"
    },
    {
      "bufferView": 8,
      "byteOffset": 56848,
      "componentType": 5126,
      "count": 143,
      "max": [
        0.6287688612937927,
        -0.4393675625324249,
        0.4033454954624176,
        0.5631665587425232
      ],
      "min": [
        0.5859588384628296,
        -0.5242264270782471,
        0.31124240159988403,
        0.4689961373806
      ],
      "type": "VEC4"
    },
    {
      "bufferView": 6,
      "byteOffset": 14784,
      "componentType": 5126,
      "count": 154,
      "max": [
        3.25
      ],
      "min": [
        0.0416666679084301
      ],
      "type": "SCALAR"
    },
    {
      "bufferView": 8,
      "byteOffset": 59136,
      "componentType": 5126,
      "count": 154,
      "max": [
        0.39144158363342285,
        0.027158213779330254,
        0.050256576389074326,
        0.9686492681503296
      ],
      "min": [
        0.24704717099666595,
        -0.051016245037317276,
        -0.019440315663814545,
        0.9192096590995789
      ],
      "type": "VEC4"
    },
    {
      "bufferView": 6,
      "byteOffset": 15400,
      "componentType": 5126,
      "count": 154,
      "max": [
        3.25
      ],
      "min": [
        0.0416666679084301
      ],
      "type": "SCALAR"
    },
    {
      "bufferView": 8,
      "byteOffset": 61600,
      "componentType": 5126,
      "count": 154,
      "max": [
        0.027773061767220497,
        0.0008251162362284958,
        0.0012632091529667377,
        0.9999650120735168
      ],
      "min": [
        0.007608186453580856,
        -0.024768294766545296,
        -0.0043067350052297115,
        0.99932861328125
      ],
      "type": "VEC4"
    },
    {
      "bufferView": 6,
      "byteOffset": 16016,
      "componentType": 5126,
      "count": 148,
      "max": [
        3.25
      ],
      "min": [
        0.125
      ],
      "type": "SCALAR"
    },
    {
      "bufferView": 8,
      "byteOffset": 64064,
      "componentType": 5126,
      "count": 148,
      "max": [
        0.07068568468093872,
        0.010426831431686878,
        0.013465244323015213,
        0.9976981282234192
      ],
      "min": [
        0.06694295257329941,
        -0.0007757120183669031,
        0.010309574194252491,
        0.99736487865448
      ],
      "type": "VEC4"
    },
    {
      "bufferView": 6,
      "byteOffset": 16608,
      "componentType": 5126,
      "count": 148,
      "max": [
        3.25
      ],
      "min": [
        0.125
      ],
      "type": "SCALAR"
    },
    {
      "bufferView": 8,
      "byteOffset": 66432,
      "componentType": 5126,
      "count": 148,
      "max": [
        0.008040808141231537,
        0.010560917668044567,
        0.013369175605475903,
        0.9999373555183411
      ],
      "min": [
        0.004278004635125399,
        -0.0006726731080561876,
        0.010317787528038025,
        0.9998277425765991
      ],
      "type": "VEC4"
    },
    {
      "bufferView": 6,
      "byteOffset": 17200,
      "componentType": 5126,
      "count": 134,
      "max": [
        3.1666667461395264
      ],
      "min": [
        0.2916666567325592
      ],
      "type": "SCALAR"
    },
    {
      "bufferView": 8,
      "byteOffset": 68800,
      "componentType": 5126,
      "count": 134,
      "max": [
        -0.04010087624192238,
        0.005824013613164425,
        0.006733700167387724,
        0.9991618394851685
      ],
      "min": [
        -0.04195976257324219,
        0.0002560674911364913,
        0.005508893169462681,
        0.9991005659103394
      ],
      "type": "VEC4"
    },
    {
      "bufferView": 6,
      "byteOffset": 17736,
      "componentType": 5126,
      "count": 154,
      "max": [
        3.25
      ],
      "min": [
        0.0416666679084301
      ],
      "type": "SCALAR"
    },
    {
      "bufferView": 8,
      "byteOffset": 70944,
      "componentType": 5126,
      "count": 154,
      "max": [
        0.4621371626853943,
        0.024144142866134644,
        0.020835723727941513,
        0.8964172005653381
      ],
      "min": [
        0.442670613527298,
        -0.002586973598226905,
        0.0036385783459991217,
        0.8865962028503418
      ],
      "type": "VEC4"
    },
    {
      "bufferView": 6,
      "byteOffset": 18352,
      "componentType": 5126,
      "count": 150,
      "max": [
        3.25
      ],
      "min": [
        0.0416666679084301
      ],
      "type": "SCALAR"
    },
    {
      "bufferView": 8,
      "byteOffset": 73408,
      "componentType": 5126,
      "count": 150,
      "max": [
        -0.06754540652036667,
        0.0011789185227826238,
        -0.0023585958406329155,
        0.9977132081985474
      ],
      "min": [
        -0.09519247710704803,
        0.0005355451721698046,
        -0.003566519822925329,
        0.9954519867897034
      ],
      "type": "VEC4"
    },
    {
      "bufferView": 6,
      "byteOffset": 18952,
      "componentType": 5126,
      "count": 149,
      "max": [
        3.25
      ],
      "min": [
        0.125
      ],
      "type": "SCALAR"
    },
    {
      "bufferView": 8,
      "byteOffset": 75808,
      "componentType": 5126,
      "count": 149,
      "max": [
        0.11991944164037704,
        0.0456216000020504,
        0.9930750131607056,
        -0.004624940454959869
      ],
      "min": [
        0.11091461777687073,
        0.038206711411476135,
        0.9917094707489014,
        -0.008489018306136131
      ],
      "type": "VEC4"
    },
    {
      "bufferView": 6,
      "byteOffset": 19548,
      "componentType": 5126,
      "count": 153,
      "max": [
        3.2083332538604736
      ],
      "min": [
        0.0416666679084301
      ],
      "type": "SCALAR"
    },
    {
      "bufferView": 8,
      "byteOffset": 78192,
      "componentType": 5126,
      "count": 153,
      "max": [
        0.5062680840492249,
        0.1581701934337616,
        -0.04544027894735336,
        0.852602481842041
      ],
      "min": [
        0.5002720355987549,
        0.1328289955854416,
        -0.05833481624722481,
        0.8469271659851074
      ],
      "type": "VEC4"
    },
    {
      "bufferView": 6,
      "byteOffset": 20160,
      "componentType": 5126,
      "count": 130,
      "max": [
        3.25
      ],
      "min": [
        0.4166666567325592
      ],
      "type": "SCALAR"
    },
    {
      "bufferView": 8,
      "byteOffset": 80640,
      "componentType": 5126,
      "count": 130,
      "max": [
        -0.13935956358909607,
        0.0011825194815173745,
        0.00548781780526042,
        0.9902304410934448
      ],
      "min": [
        -0.14232508838176727,
        0.00022477784659713507,
        0.00409624632447958,
        0.9898048043251038
      ],
      "type": "VEC4"
    },
    {
      "bufferView": 6,
      "byteOffset": 20680,
      "componentType": 5126,
      "count": 153,
      "max": [
        3.25
      ],
      "min": [
        0.0833333358168602
      ],
      "type": "SCALAR"
    },
    {
      "bufferView": 8,
      "byteOffset": 82720,
      "componentType": 5126,
      "count": 153,
      "max": [
        -0.025762347504496574,
        0.0337577760219574,
        0.9985383152961731,
        0.03480423614382744
      ],
      "min": [
        -0.03849758580327034,
        0.030521772801876068,
        0.9980964660644531,
        0.03441416844725609
      ],
      "type": "VEC4"
    },
    {
      "bufferView": 6,
      "byteOffset": 21292,
      "componentType": 5126,
      "count": 60,
      "max": [
        3.25
      ],
      "min": [
        0.0416666679084301
      ],
      "type": "SCALAR"
    },
    {
      "bufferView": 7,
      "componentType": 5126,
      "count": 60,
      "max": [
        0.0029449881985783577,
        0.02232300490140915,
        1.0369640588760376
      ],
      "min": [
        -0.0023110071197152138,
        0.011108994483947754,
        1.0369640588760376
      ],
      "type": "VEC3"
    },
    {
      "bufferView": 6,
      "byteOffset": 21532,
      "componentType": 5126,
      "count": 152,
      "max": [
        3.25
      ],
      "min": [
        0.0416666679084301
      ],
      "type": "SCALAR"
    },
    {
      "bufferView": 8,
      "byteOffset": 85168,
      "componentType": 5126,
      "count": 152,
      "max": [
        0.6899183392524719,
        -0.00070692237932235,
        -0.014120383188128471,
        0.7276578545570374
      ],
      "min": [
        0.6846883893013,
        -0.02110576629638672,
        -0.03906221687793732,
        0.7236934900283813
      ],
      "type": "VEC4"
    }
  ],
  "animations": [
    {
      "channels": [
        {
          "sampler": 0,
          "target": {
            "node": 18,
            "path": "rotation"
          }
        },
        {
          "sampler": 1,
          "target": {
            "node": 17,
            "path": "rotation"
          }
        },
        {
          "sampler": 2,
          "target": {
            "node": 22,
            "path": "rotation"
          }
        },
        {
          "sampler": 3,
          "target": {
            "node": 21,
            "path": "rotation"
          }
        },
        {
          "sampler": 4,
          "target": {
            "node": 26,
            "path": "rotation"
          }
        },
        {
          "sampler": 5,
          "target": {
            "node": 25,
            "path": "rotation"
          }
        },
        {
          "sampler": 6,
          "target": {
            "node": 30,
            "path": "rotation"
          }
        },
        {
          "sampler": 7,
          "target": {
            "node": 29,
            "path": "rotation"
          }
        },
        {
          "sampler": 8,
          "target": {
            "node": 34,
            "path": "rotation"
          }
        },
        {
          "sampler": 9,
          "target": {
            "node": 33,
            "path": "rotation"
          }
        },
        {
          "sampler": 10,
          "target": {
            "node": 16,
            "path": "rotation"
          }
        },
        {
          "sampler": 11,
          "target": {
            "node": 15,
            "path": "rotation"
          }
        },
        {
          "sampler": 12,
          "target": {
            "node": 14,
            "path": "rotation"
          }
        },
        {
          "sampler": 13,
          "target": {
            "node": 13,
            "path": "rotation"
          }
        },
        {
          "sampler": 14,
          "target": {
            "node": 42,
            "path": "rotation"
          }
        },
        {
          "sampler": 15,
          "target": {
            "node": 41,
            "path": "rotation"
          }
        },
        {
          "sampler": 16,
          "target": {
            "node": 46,
            "path": "rotation"
          }
        },
        {
          "sampler": 17,
          "target": {
            "node": 45,
            "path": "rotation"
          }
        },
        {
          "sampler": 18,
          "target": {
            "node": 50,
            "path": "rotation"
          }
        },
        {
          "sampler": 19,
          "target": {
            "node": 49,
            "path": "rotation"
          }
        },
        {
          "sampler": 20,
          "target": {
            "node": 54,
            "path": "rotation"
          }
        },
        {
          "sampler": 21,
          "target": {
            "node": 53,
            "path": "rotation"
          }
        },
        {
          "sampler": 22,
          "target": {
            "node": 58,
            "path": "rotation"
          }
        },
        {
          "sampler": 23,
          "target": {
            "node": 57,
            "path": "rotation"
          }
        },
        {
          "sampler": 24,
          "target": {
            "node": 40,
            "path": "rotation"
          }
        },
        {
          "sampler": 25,
          "target": {
            "node": 39,
            "path": "rotation"
          }
        },
        {
          "sampler": 26,
          "target": {
            "node": 38,
            "path": "rotation"
          }
        },
        {
          "sampler": 27,
          "target": {
            "node": 37,
            "path": "rotation"
          }
        },
        {
          "sampler": 28,
          "target": {
            "node": 62,
            "path": "rotation"
          }
        },
        {
          "sampler": 29,
          "target": {
            "node": 61,
            "path": "rotation"
          }
        },
        {
          "sampler": 30,
          "target": {
            "node": 12,
            "path": "rotation"
          }
        },
        {
          "sampler": 31,
          "target": {
            "node": 11,
            "path": "rotation"
          }
        },
        {
          "sampler": 32,
          "target": {
            "node": 10,
            "path": "rotation"
          }
        },
        {
          "sampler": 33,
          "target": {
            "node": 68,
            "path": "rotation"
          }
        },
        {
          "sampler": 34,
          "target": {
            "node": 67,
            "path": "rotation"
          }
        },
        {
          "sampler": 35,
          "target": {
            "node": 66,
            "path": "rotation"
          }
        },
        {
          "sampler": 36,
          "target": {
            "node": 73,
            "path": "rotation"
          }
        },
        {
          "sampler": 37,
          "target": {
            "node": 72,
            "path": "rotation"
          }
        },
        {
          "sampler": 38,
          "target": {
            "node": 71,
            "path": "rotation"
          }
        },
        {
          "sampler": 39,
          "target": {
            "node": 9,
            "path": "translation"
          }
        },
        {
          "sampler": 40,
          "target": {
            "node": 9,
            "path": "rotation"
          }
        }
      ],
      "name": "Animation",
      "samplers": [
        {
          "input": 13,
          "interpolation": "LINEAR",
          "output": 14
        },
        {
          "input": 15,
          "interpolation": "LINEAR",
          "output": 16
        },
        {
          "input": 17,
          "interpolation": "LINEAR",
          "output": 18
        },
        {
          "input": 19,
          "interpolation": "LINEAR",
          "output": 20
        },
        {
          "input": 21,
          "interpolation": "LINEAR",
          "output": 22
        },
        {
          "input": 23,
          "interpolation": "LINEAR",
          "output": 24
        },
        {
          "input": 25,
          "interpolation": "LINEAR",
          "output": 26
        },
        {
          "input": 27,
          "interpolation": "LINEAR",
          "output": 28
        },
        {
          "input": 29,
          "interpolation": "LINEAR",
          "output": 30
        },
        {
          "input": 31,
          "interpolation": "LINEAR",
          "output": 32
        },
        {
          "input": 33,
          "interpolation": "LINEAR",
          "output": 34
        },
        {
          "input": 35,
          "interpolation": "LINEAR",
          "output": 36
        },
        {
          "input": 37,
          "interpolation": "LINEAR",
          "output": 38
        },
        {
          "input": 39,
          "interpolation": "LINEAR",
          "output": 40
        },
        {
          "input": 41,
          "interpolation": "LINEAR",
          "output": 42
        },
        {
          "input": 43,
          "interpolation": "LINEAR",
          "output": 44
        },
        {
          "input": 45,
          "interpolation": "LINEAR",
          "output": 46
        },
        {
          "input": 47,
          "interpolation": "LINEAR",
          "output": 48
        },
        {
          "input": 49,
          "interpolation": "LINEAR",
          "output": 50
        },
        {
          "input": 51,
          "interpolation": "LINEAR",
          "output": 52
        },
        {
          "input": 53,
          "interpolation": "LINEAR",
          "output": 54
        },
        {
          "input": 55,
          "interpolation": "LINEAR",
          "output": 56
        },
        {
          "input": 57,
          "interpolation": "LINEAR",
          "output": 58
        },
        {
          "input": 59,
          "interpolation": "LINEAR",
          "output": 60
        },
        {
          "input": 61,
          "interpolation": "LINEAR",
          "output": 62
        },
        {
          "input": 63,
          "interpolation": "LINEAR",
          "output": 64
        },
        {
          "input": 65,
          "interpolation": "LINEAR",
          "output": 66
        },
        {
          "input": 67,
          "interpolation": "LINEAR",
          "output": 68
        },
        {
          "input": 69,
          "interpolation": "LINEAR",
          "output": 70
        },
        {
          "input": 71,
          "interpolation": "LINEAR",
          "output": 72
        },
        {
          "input": 73,
          "interpolation": "LINEAR",
          "output": 74
        },
        {
          "input": 75,
          "interpolation": "LINEAR",
          "output": 76
        },
        {
          "input": 77,
          "interpolation": "LINEAR",
          "output": 78
        },
        {
          "input": 79,
          "interpolation": "LINEAR",
          "output": 80
        },
        {
          "input": 81,
          "interpolation": "LINEAR",
          "output": 82
        },
        {
          "input": 83,
          "interpolation": "LINEAR",
          "output": 84
        },
        {
          "input": 85,
          "interpolation": "LINEAR",
          "output": 86
        },
        {
          "input": 87,
          "interpolation": "LINEAR",
          "output": 88
        },
        {
          "input": 89,
          "interpolation": "LINEAR",
          "output": 90
        },
        {
          "input": 91,
          "interpolation": "LINEAR",
          "output": 92
        },
        {
          "input": 93,
          "interpolation": "LINEAR",
          "output": 94
        }
      ]
    }
  ],
  "asset": {
    "extras": {
      "author": "LasquetiSpice (https://sketchfab.com/LasquetiSpice)",
      "license": "CC-BY-4.0 (http://creativecommons.org/licenses/by/4.0/)",
      "source": "https://sketchfab.com/3d-models/animated-female-character-taps-cube-d01ca064e0d2434ea64f69ae5dd2b7b6",
      "title": "Animated Female Character Taps Cube"
    },
    "generator": "Sketchfab-12.71.0",
    "version": "2.0"
  },
  "bufferViews": [
    {
      "buffer": 0,
      "byteLength": 68416,
      "byteStride": 8,
      "name": "shortBufferViews",
      "target": 34962
    },
    {
      "buffer": 0,
      "byteLength": 177276,
      "byteOffset": 68416,
      "name": "floatBufferViews",
      "target": 34963
    },
    {
      "buffer": 0,
      "byteLength": 137040,
      "byteOffset": 245692,
      "byteStride": 8,
      "name": "floatBufferViews",
      "target": 34962
    },
    {
      "buffer": 0,
      "byteLength": 205872,
      "byteOffset": 382732,
      "byteStride": 12,
      "name": "floatBufferViews",
      "target": 34962
    },
    {
      "buffer": 0,
      "byteLength": 273664,
      "byteOffset": 588604,
      "byteStride": 16,
      "name": "floatBufferViews",
      "target": 34962
    },
    {
      "buffer": 0,
      "byteLength": 4352,
      "byteOffset": 862268,
      "name": "floatBufferViews"
    },
    {
      "buffer": 0,
      "byteLength": 22140,
      "byteOffset": 866620,
      "name": "floatBufferViews"
    },
    {
      "buffer": 0,
      "byteLength": 720,
      "byteOffset": 888760,
      "byteStride": 12,
      "name": "floatBufferViews"
    },
    {
      "buffer": 0,
      "byteLength": 87600,
      "byteOffset": 889480,
      "byteStride": 16,
      "name": "floatBufferViews"
    }
  ],
  "buffers": [
    {
      "byteLength": 977080,
      "uri": "scene.bin"
    }
  ],
  "images": [
    {
      "uri": "textures/Wolf3D_Avatar_baseColor.png"
    },
    {
      "uri": "textures/Wolf3D_Avatar_normal.png"
    }
  ],
  "materials": [
    {
      "doubleSided": true,
      "name": "Wolf3D_Avatar",
      "normalTexture": {
        "index": 1
      },
      "pbrMetallicRoughness": {
        "baseColorTexture": {
          "index": 0
        },
        "metallicFactor": 0.0,
        "roughnessFactor": 0.8211145618000169
      }
    },
    {
      "doubleSided": true,
      "name": "material",
      "pbrMetallicRoughness": {
        "baseColorFactor": [
          0.8,
          0.8,
          0.8,
          1.0
        ],
        "metallicFactor": 0.0,
        "roughnessFactor": 0.8211145618000169
      }
    }
  ],
  "meshes": [
    {
      "name": "0",
      "primitives": [
        {
          "attributes": {
            "JOINTS_0": 11,
            "NORMAL": 1,
            "POSITION": 0,
            "TANGENT": 2,
            "TEXCOORD_0": 3,
            "TEXCOORD_1": 4,
            "TEXCOORD_2": 3,
            "WEIGHTS_0": 12
          },
          "indices": 5,
          "material": 0,
          "mode": 4
        }
      ]
    },
    {
      "name": "node0_549_0",
      "primitives": [
        {
          "attributes": {
            "NORMAL": 7,
            "POSITION": 6,
            "TEXCOORD_0": 8
          },
          "indices": 9,
          "material": 1,
          "mode": 4
        }
      ]
    }
  ],
  "nodes": [
    {
      "children": [
        1
      ],
      "matrix": [
        1.0,
        0.0,
        0.0,
        0.0,
        0.0,
        2.220446049250313e-16,
        -1.0,
        0.0,
        0.0,
        1.0,
        2.220446049250313e-16,
        0.0,
        0.0,
        0.0,
        0.0,
        1.0
      ],
      "name": "Sketchfab_model"
    },
    {
      "children": [
        2
      ],
      "matrix": [
        0.009999999776482582,
        0.0,
        0.0,
        0.0,
        0.0,
        0.0,
        0.009999999776482582,
        0.0,
        0.0,
        -0.009999999776482582,
        0.0,
        0.0,
        0.0,
        0.0,
        0.0,
        1.0
      ],
      "name": "359cdbe31bf84e6398f3623ef94b3d1f.fbx"
    },
    {
      "children": [
        3
      ],
      "name": "Object_2"
    },
    {
      "children": [
        4,
        78,
        79
      ],
      "name": "RootNode"
    },
    {
      "children": [
        5
      ],
      "name": "Button Pushing (1)",
      "rotation": [
        0.47078433632850647,
        0.5276003479957581,
        0.5276002287864685,
        -0.47078442573547363
      ],
      "scale": [
        99.99999237060547,
        99.99999237060547,
        100.0
      ],
      "translation": [
        45.267913818359375,
        0.0,
        0.0
      ]
    },
    {
      "children": [
        6
      ],
      "name": "Button Pushing (1) Skeleton",
      "rotation": [
        1.0546552810051103e-23,
        -4.963083675318166e-24,
        6.938893903907228e-18,
        1.0
      ],
      "translation": [
        3.725290298461914e-09,
        0.0,
        1.3234889800848443e-23
      ]
    },
    {
      "children": [
        7
      ],
      "name": "Girl Dancer Skeleton",
      "rotation": [
        9.719372197498075e-24,
        -3.308722450212111e-24,
        6.938893903907228e-18,
        1.0
      ],
      "translation": [
        3.725290298461914e-09,
        0.0,
        0.0
      ]
    },
    {
      "children": [
        8,
        77,
        76
      ],
      "name": "Object_7"
    },
    {
      "children": [
        9
      ],
      "name": "_rootJoint"
    },
    {
      "children": [
        10,
        66,
        71
      ],
      "name": "Hips_01",
      "rotation": [
        0.6859229207038879,
        -0.021012229844927788,
        -0.038220811635255814,
        0.7263659238815308
      ],
      "scale": [
        0.9999995231628418,
        0.9999989867210388,
        0.9999989867210388
      ],
      "translation": [
        0.0022699893452227116,
        0.01456599310040474,
        1.0422409772872925
      ]
    },
    {
      "children": [
        11
      ],
      "name": "Spine_02",
      "rotation": [
        -0.04182863235473633,
        0.001431554788723588,
        0.006120732054114342,
        0.9991050362586975
      ],
      "scale": [
        1.0000005960464478,
        1.0000004768371582,
        1.0000003576278687
      ],
      "translation": [
        -3.273598849773407e-07,
        0.09590879827737808,
        -0.009337636642158031
      ]
    },
    {
      "children": [
        12
      ],
      "name": "Spine1_03",
      "rotation": [
        0.004572589416056871,
        0.0017830494325608015,
        0.011456349864602089,
        0.9999223351478577
      ],
      "scale": [
        0.9999997615814209,
        0.9999987483024597,
        0.9999991059303284
      ],
      "translation": [
        -2.528540790081024e-07,
        0.091474749147892,
        3.417953848838806e-07
      ]
    },
    {
      "children": [
        13,
        37,
        61
      ],
      "name": "Spine2_04",
      "rotation": [
        0.06723426282405853,
        0.0016681726556271315,
        0.011473581194877625,
        0.9976698756217957
      ],
      "scale": [
        1.0000003576278687,
        1.0000004768371582,
        0.9999997019767761
      ],
      "translation": [
        2.1420419216156006e-08,
        0.12162056565284729,
        -2.532033249735832e-07
      ]
    },
    {
      "children": [
        14
      ],
      "name": "LeftShoulder_05",
      "rotation": [
        0.5415219664573669,
        0.5721586346626282,
        -0.4890349209308624,
        0.3744773268699646
      ],
      "scale": [
        0.9999991059303284,
        1.0000001192092896,
        1.000001072883606
      ],
      "translation": [
        0.0622233971953392,
        0.10555050522089005,
        -0.004634851589798927
      ]
    },
    {
      "children": [
        15
      ],
      "name": "LeftArm_06",
      "rotation": [
        0.5439279675483704,
        0.24238236248493195,
        0.2559319734573364,
        0.7615063786506653
      ],
      "scale": [
        0.9999976754188538,
        1.0000004768371582,
        1.0000008344650269
      ],
      "translation": [
        7.841736078262329e-07,
        0.0653427392244339,
        8.707866072654724e-07
      ]
    },
    {
      "children": [
        16
      ],
      "name": "LeftForeArm_07",
      "rotation": [
        -0.016985489055514336,
        -0.00922885350883007,
        0.24037209153175354,
        0.9704883098602295
      ],
      "scale": [
        0.9999978542327881,
        1.0000015497207642,
        1.0000005960464478
      ],
      "translation": [
        -2.4586915969848633e-07,
        0.26884347200393677,
        -6.92903995513916e-07
      ]
    },
    {
      "children": [
        17,
        21,
        25,
        29,
        33
      ],
      "name": "LeftHand_08",
      "rotation": [
        -0.11642611026763916,
        -0.3328171968460083,
        -0.13649533689022064,
        0.9257681965827942
      ],
      "scale": [
        0.9999976754188538,
        1.0000016689300537,
        1.0000004768371582
      ],
      "translation": [
        -4.470348358154297e-08,
        0.25737592577934265,
        -5.774199962615967e-07
      ]
    },
    {
      "children": [
        18
      ],
      "name": "LeftHandThumb1_09",
      "rotation": [
        0.21156805753707886,
        0.23762014508247375,
        0.12063964456319809,
        0.9403306245803833
      ],
      "scale": [
        1.0000079870224,
        0.9999911189079285,
        1.0000008344650269
      ],
      "translation": [
        -0.014616964384913445,
        0.01630888693034649,
        0.015950053930282593
      ]
    },
    {
      "children": [
        19
      ],
      "name": "LeftHandThumb2_010",
      "rotation": [
        -0.012210879474878311,
        -0.05352035164833069,
        -0.03434839844703674,
        0.9979011416435242
      ],
      "scale": [
        0.9999917149543762,
        1.0000079870224,
        0.9999996423721313
      ],
      "translation": [
        5.997717380523682e-07,
        0.03407931327819824,
        1.4249235391616821e-06
      ]
    },
    {
      "children": [
        20
      ],
      "name": "LeftHandThumb3_011",
      "rotation": [
        2.1163410565350205e-05,
        0.0025876362342387438,
        7.4748195402207784e-06,
        0.9999966621398926
      ],
      "scale": [
        0.9999968409538269,
        1.0000033378601074,
        0.9999999403953552
      ],
      "translation": [
        2.6961788535118103e-07,
        0.031169753521680832,
        -4.44706529378891e-07
      ]
    },
    {
      "name": "LeftHandThumb4_012",
      "rotation": [
        -1.7696178744586177e-08,
        -0.010745808482170105,
        -5.401983216302142e-08,
        0.9999423623085022
      ],
      "scale": [
        1.0000015497207642,
        0.999998152256012,
        0.9999991655349731
      ],
      "translation": [
        -6.156042218208313e-07,
        0.03377855569124222,
        -7.849594112485647e-07
      ]
    },
    {
      "children": [
        22
      ],
      "name": "LeftHandIndex1_013",
      "rotation": [
        0.3002021908760071,
        0.07154997438192368,
        -0.07477201521396637,
        0.9482449293136597
      ],
      "scale": [
        1.0000035762786865,
        0.9999969601631165,
        1.0000003576278687
      ],
      "translation": [
        -0.022480718791484833,
        0.0863557681441307,
        0.004553590435534716
      ]
    },
    {
      "children": [
        23
      ],
      "name": "LeftHandIndex2_014",
      "rotation": [
        0.2799701392650604,
        0.06069469079375267,
        -0.03616785258054733,
        0.9574053287506104
      ],
      "scale": [
        0.999998152256012,
        1.0000004768371582,
        1.0000008344650269
      ],
      "translation": [
        -2.430751919746399e-07,
        0.03222082927823067,
        -4.100729711353779e-07
      ]
    },
    {
      "children": [
        24
      ],
      "name": "LeftHandIndex3_015",
      "rotation": [
        -1.7471555111114867e-05,
        -0.04696833714842796,
        1.792447278603504e-06,
        0.9988964796066284
      ],
      "scale": [
        0.9999983906745911,
        1.0000019073486328,
        0.9999998211860657
      ],
      "translation": [
        9.499490261077881e-08,
        0.028317056596279144,
        -5.860347300767899e-07
      ]
    },
    {
      "name": "LeftHandIndex4_016",
      "rotation": [
        -1.8223991204990853e-08,
        -0.023377561941742897,
        5.589469331823693e-09,
        0.9997267127037048
      ],
      "scale": [
        0.999998927116394,
        0.9999988675117493,
        0.9999994039535522
      ],
      "translation": [
        -2.775341272354126e-07,
        0.02558782510459423,
        8.438946679234505e-07
      ]
    },
    {
      "children": [
        26
      ],
      "name": "LeftHandMiddle1_017",
      "rotation": [
        0.30996617674827576,
        0.06268574297428131,
        -0.04769085720181465,
        0.9474793076515198
      ],
      "scale": [
        1.0000004768371582,
        1.0000004768371582,
        1.000000238418579
      ],
      "translation": [
        -0.0067476918920874596,
        0.08460050821304321,
        -0.0015588572714477777
      ]
    },
    {
      "children": [
        27
      ],
      "name": "LeftHandMiddle2_018",
      "rotation": [
        0.40431174635887146,
        0.01940060220658779,
        -0.022457586601376534,
        0.9141396284103394
      ],
      "scale": [
        0.9999997019767761,
        0.9999974966049194,
        0.9999998807907104
      ],
      "translation": [
        -8.675269782543182e-07,
        0.038194235414266586,
        1.5972182154655457e-07
      ]
    },
    {
      "children": [
        28
      ],
      "name": "LeftHandMiddle3_019",
      "rotation": [
        1.0764745638880413e-05,
        -0.007269392255693674,
        -2.380790829192847e-05,
        0.9999735951423645
      ],
      "scale": [
        1.000001311302185,
        0.9999991655349731,
        1.0000004768371582
      ],
      "translation": [
        7.692724466323853e-07,
        0.03219454362988472,
        -6.59027136862278e-07
      ]
    },
    {
      "name": "LeftHandMiddle4_020",
      "rotation": [
        -1.9156807695708267e-08,
        -0.08210717141628265,
        -6.541349684141551e-09,
        0.9966235160827637
      ],
      "scale": [
        0.9999991655349731,
        1.0,
        0.9999992847442627
      ],
      "translation": [
        -3.855675458908081e-07,
        0.024585027247667313,
        -6.285263225436211e-07
      ]
    },
    {
      "children": [
        30
      ],
      "name": "LeftHandRing1_021",
      "rotation": [
        0.3211578130722046,
        0.05272670462727547,
        0.0030056557152420282,
        0.9455519914627075
      ],
      "scale": [
        0.9999982714653015,
        1.0000017881393433,
        1.0000005960464478
      ],
      "translation": [
        0.01420154795050621,
        0.08716403692960739,
        -0.007215120363980532
      ]
    },
    {
      "children": [
        31
      ],
      "name": "LeftHandRing2_022",
      "rotation": [
        0.5510433316230774,
        -0.004339785315096378,
        0.007538266014307737,
        0.8344314098358154
      ],
      "scale": [
        0.9999998807907104,
        0.9999997615814209,
        1.000000238418579
      ],
      "translation": [
        8.810311555862427e-07,
        0.03037884831428528,
        5.844049155712128e-07
      ]
    },
    {
      "children": [
        32
      ],
      "name": "LeftHandRing3_023",
      "rotation": [
        -2.8641874450840987e-05,
        -0.01303856261074543,
        -1.8273287423653528e-05,
        0.9999150037765503
      ],
      "scale": [
        0.9999989867210388,
        1.0000008344650269,
        0.9999998211860657
      ],
      "translation": [
        7.189810276031494e-07,
        0.028316639363765717,
        -1.6444828361272812e-06
      ]
    },
    {
      "name": "LeftHandRing4_024",
      "rotation": [
        -3.3007694355546846e-08,
        -0.015439733862876892,
        -2.050608749470939e-08,
        0.9998809099197388
      ],
      "scale": [
        1.0000003576278687,
        1.000000238418579,
        0.999998927116394
      ],
      "translation": [
        -1.1592637747526169e-06,
        0.0212513729929924,
        6.94766640663147e-07
      ]
    },
    {
      "children": [
        34
      ],
      "name": "LeftHandPinky1_025",
      "rotation": [
        0.3693840801715851,
        0.03958866745233536,
        -0.006904837675392628,
        0.9284074902534485
      ],
      "scale": [
        0.9999945759773254,
        1.0000051259994507,
        0.9999992251396179
      ],
      "translation": [
        0.029645022004842758,
        0.0796232670545578,
        -0.01172697078436613
      ]
    },
    {
      "children": [
        35
      ],
      "name": "LeftHandPinky2_026",
      "rotation": [
        0.586383581161499,
        0.017292538657784462,
        0.019071385264396667,
        0.8096243143081665
      ],
      "scale": [
        0.9999995231628418,
        0.999999463558197,
        1.0000008344650269
      ],
      "translation": [
        1.391395926475525e-06,
        0.02763848565518856,
        4.707835614681244e-07
      ]
    },
    {
      "children": [
        36
      ],
      "name": "LeftHandPinky3_027",
      "rotation": [
        -2.8507864044513553e-05,
        -0.03479297086596489,
        4.107431959710084e-05,
        0.9993945360183716
      ],
      "scale": [
        0.9999995231628418,
        0.9999998807907104,
        1.0000008344650269
      ],
      "translation": [
        -8.363276720046997e-07,
        0.017656009644269943,
        -7.273629307746887e-07
      ]
    },
    {
      "name": "LeftHandPinky4_028",
      "rotation": [
        8.117785910144448e-08,
        -0.013393279165029526,
        2.3517999991895522e-08,
        0.9999104142189026
      ],
      "scale": [
        1.000000238418579,
        1.0000003576278687,
        1.0
      ],
      "translation": [
        1.7695128917694092e-08,
        0.013381807133555412,
        7.504131644964218e-07
      ]
    },
    {
      "children": [
        38
      ],
      "name": "RightShoulder_029",
      "rotation": [
        0.5916784405708313,
        -0.5165069699287415,
        0.3993118405342102,
        0.4729558229446411
      ],
      "scale": [
        0.9999995231628418,
        0.9999989867210388,
        1.0000005960464478
      ],
      "translation": [
        -0.06222343444824219,
        0.10554968565702438,
        -0.004635292571038008
      ]
    },
    {
      "children": [
        39
      ],
      "name": "RightArm_030",
      "rotation": [
        0.5757655501365662,
        -0.12692569196224213,
        -0.16938075423240662,
        0.7897430658340454
      ],
      "scale": [
        0.9999985694885254,
        1.000000238418579,
        1.0000020265579224
      ],
      "translation": [
        -1.9837170839309692e-07,
        0.06534311175346375,
        -1.0030344128608704e-06
      ]
    },
    {
      "children": [
        40
      ],
      "name": "RightForeArm_031",
      "rotation": [
        -0.01902606338262558,
        0.009151211008429527,
        -0.26923057436943054,
        0.9628443121910095
      ],
      "scale": [
        0.9999978542327881,
        1.000003695487976,
        0.9999992251396179
      ],
      "translation": [
        2.682209014892578e-07,
        0.2688432037830353,
        -5.140900611877441e-07
      ]
    },
    {
      "children": [
        41,
        45,
        49,
        53,
        57
      ],
      "name": "RightHand_032",
      "rotation": [
        -0.10977543145418167,
        0.12279742956161499,
        0.14200083911418915,
        0.9760666489601135
      ],
      "scale": [
        0.9999983906745911,
        1.0000015497207642,
        1.0000009536743164
      ],
      "translation": [
        -7.152557373046875e-07,
        0.2573753297328949,
        -2.5704503059387207e-07
      ]
    },
    {
      "children": [
        42
      ],
      "name": "RightHandThumb1_033",
      "rotation": [
        0.24888700246810913,
        -0.20389646291732788,
        -0.21670681238174438,
        0.9216939210891724
      ],
      "scale": [
        1.0000072717666626,
        0.9999906420707703,
        1.0000014305114746
      ],
      "translation": [
        0.01461111195385456,
        0.016316045075654984,
        0.01594841293990612
      ]
    },
    {
      "children": [
        43
      ],
      "name": "RightHandThumb2_034",
      "rotation": [
        -0.01771348901093006,
        0.053015951067209244,
        0.04234008118510246,
        0.9975383877754211
      ],
      "scale": [
        0.9999926090240479,
        1.0000081062316895,
        0.9999995231628418
      ],
      "translation": [
        -9.57399606704712e-07,
        0.03407913073897362,
        -2.761371433734894e-07
      ]
    },
    {
      "children": [
        44
      ],
      "name": "RightHandThumb3_035",
      "rotation": [
        5.5776999943191186e-06,
        -0.002602291526272893,
        -2.406546991551295e-05,
        0.9999966025352478
      ],
      "scale": [
        0.9999958276748657,
        1.0000033378601074,
        1.000000238418579
      ],
      "translation": [
        7.860362529754639e-07,
        0.031169239431619644,
        8.568167686462402e-07
      ]
    },
    {
      "name": "RightHandThumb4_036",
      "rotation": [
        8.848094701363607e-09,
        0.010750876739621162,
        3.725494135409235e-09,
        0.9999423027038574
      ],
      "scale": [
        1.0000032186508179,
        0.9999978542327881,
        0.9999992251396179
      ],
      "translation": [
        -9.834766387939453e-07,
        0.03377905488014221,
        -4.33996319770813e-07
      ]
    },
    {
      "children": [
        46
      ],
      "name": "RightHandIndex1_037",
      "rotation": [
        0.2004619836807251,
        -0.05107240378856659,
        0.06783851236104965,
        0.9760146141052246
      ],
      "scale": [
        1.0000019073486328,
        0.9999961256980896,
        1.0
      ],
      "translation": [
        0.022478152066469193,
        0.0863579511642456,
        0.00452372245490551
      ]
    },
    {
      "children": [
        47
      ],
      "name": "RightHandIndex2_038",
      "rotation": [
        0.3423222601413727,
        -0.059148721396923065,
        0.05026467889547348,
        0.936370849609375
      ],
      "scale": [
        0.9999986290931702,
        1.0000011920928955,
        1.0000016689300537
      ],
      "translation": [
        8.363276720046997e-07,
        0.03222085162997246,
        2.3096799850463867e-07
      ]
    },
    {
      "children": [
        48
      ],
      "name": "RightHandIndex3_039",
      "rotation": [
        -1.9598026483436115e-05,
        0.04698073863983154,
        6.727852451149374e-06,
        0.9988958239555359
      ],
      "scale": [
        0.9999991655349731,
        1.0000007152557373,
        1.0000009536743164
      ],
      "translation": [
        -3.986060619354248e-07,
        0.028316708281636238,
        -9.275972843170166e-07
      ]
    },
    {
      "name": "RightHandIndex4_040",
      "rotation": [
        -5.7757791438461936e-08,
        0.02337724342942238,
        -1.490523970915092e-08,
        0.9997267127037048
      ],
      "scale": [
        0.9999995827674866,
        0.9999998807907104,
        0.9999998807907104
      ],
      "translation": [
        -7.431954145431519e-07,
        0.025588225573301315,
        -6.239861249923706e-08
      ]
    },
    {
      "children": [
        50
      ],
      "name": "RightHandMiddle1_041",
      "rotation": [
        0.31414419412612915,
        -0.05259675532579422,
        0.06473104655742645,
        0.945704460144043
      ],
      "scale": [
        1.0,
        1.0000007152557373,
        1.0000004768371582
      ],
      "translation": [
        0.0067587122321128845,
        0.08434616774320602,
        -0.0016633626073598862
      ]
    },
    {
      "children": [
        51
      ],
      "name": "RightHandMiddle2_042",
      "rotation": [
        0.4183817207813263,
        0.14478354156017303,
        0.124976746737957,
        0.8879050016403198
      ],
      "scale": [
        1.0000001192092896,
        0.9999974370002747,
        0.9999991655349731
      ],
      "translation": [
        -7.692724466323853e-07,
        0.038193847984075546,
        5.187466740608215e-07
      ]
    },
    {
      "children": [
        52
      ],
      "name": "RightHandMiddle3_043",
      "rotation": [
        -2.0793226212845184e-05,
        0.00722885737195611,
        -1.3687070349988062e-05,
        0.9999738931655884
      ],
      "scale": [
        1.0000001192092896,
        1.0000003576278687,
        1.0000017881393433
      ],
      "translation": [
        8.605420589447021e-07,
        0.032193608582019806,
        -8.163042366504669e-07
      ]
    },
    {
      "name": "RightHandMiddle4_044",
      "rotation": [
        -1.8689503278324082e-09,
        0.08210591971874237,
        1.4577852880393039e-07,
        0.9966236352920532
      ],
      "scale": [
        1.0000005960464478,
        0.9999997615814209,
        1.0000001192092896
      ],
      "translation": [
        -7.14324414730072e-07,
        0.024585118517279625,
        1.4514662325382233e-06
      ]
    },
    {
      "children": [
        54
      ],
      "name": "RightHandRing1_045",
      "rotation": [
        0.34996655583381653,
        -0.08876966685056686,
        0.02467881701886654,
        0.9322201013565063
      ],
      "scale": [
        0.9999971985816956,
        1.0000020265579224,
        1.0000004768371582
      ],
      "translation": [
        -0.014170242473483086,
        0.08696452528238297,
        -0.007099729496985674
      ]
    },
    {
      "children": [
        55
      ],
      "name": "RightHandRing2_046",
      "rotation": [
        0.43903470039367676,
        0.002513101091608405,
        -0.02188723348081112,
        0.8981999754905701
      ],
      "scale": [
        1.000001072883606,
        0.9999992251396179,
        0.999999463558197
      ],
      "translation": [
        9.495415724813938e-07,
        0.030379269272089005,
        -5.8673322200775146e-08
      ]
    },
    {
      "children": [
        56
      ],
      "name": "RightHandRing3_047",
      "rotation": [
        -2.784516618703492e-05,
        0.013027762994170189,
        2.3044731278787367e-05,
        0.9999152421951294
      ],
      "scale": [
        1.0000001192092896,
        1.0000008344650269,
        1.0000005960464478
      ],
      "translation": [
        -5.504116415977478e-07,
        0.028316782787442207,
        -7.315538823604584e-07
      ]
    },
    {
      "name": "RightHandRing4_00",
      "rotation": [
        -4.0395520062237776e-16,
        0.015444391407072544,
        3.725735275850184e-09,
        0.9998807311058044
      ],
      "scale": [
        0.9999997615814209,
        0.999999463558197,
        0.9999996423721313
      ],
      "translation": [
        3.585591912269592e-08,
        0.021251579746603966,
        1.2479140423238277e-06
      ]
    },
    {
      "children": [
        58
      ],
      "name": "RightHandPinky1_048",
      "rotation": [
        0.3947018086910248,
        -0.05368867889046669,
        0.03155429661273956,
        0.9166964292526245
      ],
      "scale": [
        0.9999935626983643,
        1.0000054836273193,
        1.0000001192092896
      ],
      "translation": [
        -0.02967604622244835,
        0.07945889234542847,
        -0.011710083112120628
      ]
    },
    {
      "children": [
        59
      ],
      "name": "RightHandPinky2_049",
      "rotation": [
        0.5388485789299011,
        -0.005844751372933388,
        -0.05774227902293205,
        0.8404009938240051
      ],
      "scale": [
        0.9999998807907104,
        1.0000001192092896,
        1.0000008344650269
      ],
      "translation": [
        -8.847564458847046e-08,
        0.027639223262667656,
        1.1338852345943451e-07
      ]
    },
    {
      "children": [
        60
      ],
      "name": "RightHandPinky3_050",
      "rotation": [
        1.0760062650660984e-05,
        0.03485017269849777,
        3.186065441695973e-05,
        0.999392569065094
      ],
      "scale": [
        0.9999997615814209,
        0.9999988675117493,
        0.9999995231628418
      ],
      "translation": [
        -4.706562322098762e-07,
        0.017655448988080025,
        5.890997272217646e-07
      ]
    },
    {
      "name": "RightHandPinky4_051",
      "rotation": [
        -3.842048457158853e-08,
        0.01339020673185587,
        -4.8491322957033844e-08,
        0.9999103546142578
      ],
      "scale": [
        0.9999997019767761,
        1.0000005960464478,
        1.0000001192092896
      ],
      "translation": [
        6.00004568696022e-07,
        0.013381153345108032,
        -2.1790037862956524e-07
      ]
    },
    {
      "children": [
        62
      ],
      "name": "Neck_052",
      "rotation": [
        0.007903712801635265,
        0.0008251162944361567,
        -0.003446492599323392,
        0.9999625086784363
      ],
      "scale": [
        0.9999995231628418,
        0.9999997019767761,
        1.0000007152557373
      ],
      "translation": [
        -4.959292709827423e-08,
        0.12409549951553345,
        0.009271462447941303
      ]
    },
    {
      "children": [
        63,
        64,
        65
      ],
      "name": "Head_053",
      "rotation": [
        0.24704717099666595,
        0.027158213779330254,
        -0.019432712346315384,
        0.968427836894989
      ],
      "scale": [
        0.9999997019767761,
        1.0000019073486328,
        0.999998927116394
      ],
      "translation": [
        -2.0762672647833824e-07,
        0.09079509973526001,
        1.1818901839433238e-06
      ]
    },
    {
      "name": "RightEye_054",
      "rotation": [
        0.08948071300983429,
        0.33599793910980225,
        0.19661593437194824,
        0.9167555570602417
      ],
      "scale": [
        0.9999999403953552,
        0.9999995231628418,
        1.0000004768371582
      ],
      "translation": [
        -0.03336469084024429,
        0.1007138341665268,
        0.03290002420544624
      ]
    },
    {
      "name": "HeadTop_End_055",
      "rotation": [
        -0.18474966287612915,
        -0.00026853563031181693,
        -0.00023316706938203424,
        0.9827856421470642
      ],
      "scale": [
        1.0,
        0.9999998807907104,
        0.9999997019767761
      ],
      "translation": [
        0.00010165050480281934,
        0.1689390391111374,
        -0.06584315747022629
      ]
    },
    {
      "name": "LeftEye_056",
      "rotation": [
        0.08995319902896881,
        -0.33551570773124695,
        -0.19625994563102722,
        0.916962206363678
      ],
      "scale": [
        1.0000001192092896,
        0.9999992847442627,
        1.0000003576278687
      ],
      "translation": [
        0.03326371684670448,
        0.10068979859352112,
        0.032940663397312164
      ]
    },
    {
      "children": [
        67
      ],
      "name": "LeftUpLeg_057",
      "rotation": [
        0.11765156686306,
        0.04239237681031227,
        0.9921135902404785,
        -0.008476451970636845
      ],
      "scale": [
        0.9999988079071045,
        1.0000005960464478,
        0.9999987483024597
      ],
      "translation": [
        0.09545633941888809,
        -0.01921866275370121,
        0.004664175678044558
      ]
    },
    {
      "children": [
        68
      ],
      "name": "LeftLeg_058",
      "rotation": [
        -0.09383364766836166,
        0.0009218199411407113,
        -0.003437742590904236,
        0.9955815076828003
      ],
      "scale": [
        1.000000238418579,
        1.0000004768371582,
        0.9999993443489075
      ],
      "translation": [
        9.71369445323944e-07,
        0.44750842452049255,
        -2.0302832126617432e-07
      ]
    },
    {
      "children": [
        69
      ],
      "name": "LeftFoot_059",
      "rotation": [
        0.46118128299713135,
        -0.0014317425666376948,
        0.01893589086830616,
        0.8871027231216431
      ],
      "scale": [
        0.9999984502792358,
        1.000001072883606,
        0.9999983906745911
      ],
      "translation": [
        -8.78702849149704e-07,
        0.44955894351005554,
        -9.816139936447144e-07
      ]
    },
    {
      "children": [
        70
      ],
      "name": "LeftToeBase_060",
      "rotation": [
        0.33070680499076843,
        -0.009579338133335114,
        0.026132792234420776,
        0.943323016166687
      ],
      "scale": [
        1.0000011920928955,
        0.99998539686203,
        1.000012993812561
      ],
      "translation": [
        8.426322892773896e-07,
        0.15657250583171844,
        -1.0989606380462646e-07
      ]
    },
    {
      "name": "LeftToe_End_061",
      "rotation": [
        -2.569160173493401e-08,
        0.5150062441825867,
        -4.018201593680715e-08,
        0.8571864366531372
      ],
      "scale": [
        0.9999995827674866,
        1.0000005960464478,
        0.9999998807907104
      ],
      "translation": [
        -2.9638613341376185e-07,
        0.08319557458162308,
        -6.009977369103581e-07
      ]
    },
    {
      "children": [
        72
      ],
      "name": "RightUpLeg_062",
      "rotation": [
        -0.034610964357852936,
        0.030353406444191933,
        0.9989373683929443,
        0.0022540318313986063
      ],
      "scale": [
        0.9999942183494568,
        1.0000003576278687,
        0.9999951124191284
      ],
      "translation": [
        -0.09545645862817764,
        -0.019217371940612793,
        0.0046738083474338055
      ]
    },
    {
      "children": [
        73
      ],
      "name": "RightLeg_063",
      "rotation": [
        -0.14139024913311005,
        0.0004516959306783974,
        0.005001589190214872,
        0.9899411797523499
      ],
      "scale": [
        0.9999995231628418,
        1.0000003576278687,
        1.0000001192092896
      ],
      "translation": [
        -2.1560117602348328e-07,
        0.4475092887878418,
        -8.158385753631592e-07
      ]
    },
    {
      "children": [
        74
      ],
      "name": "RightFoot_064",
      "rotation": [
        0.5049102306365967,
        0.13288681209087372,
        -0.045592520385980606,
        0.8516619205474854
      ],
      "scale": [
        1.000000238418579,
        0.9999991059303284,
        0.9999990463256836
      ],
      "translation": [
        -6.470363587141037e-07,
        0.4495576024055481,
        2.775341272354126e-07
      ]
    },
    {
      "children": [
        75
      ],
      "name": "RightToeBase_065",
      "rotation": [
        0.3307652473449707,
        0.014491946436464787,
        -0.026457656174898148,
        0.9432308077812195
      ],
      "scale": [
        0.9999986290931702,
        1.0000026226043701,
        0.999997615814209
      ],
      "translation": [
        1.2167729437351227e-06,
        0.15657386183738708,
        -9.387731552124023e-07
      ]
    },
    {
      "name": "RightToe_End_066",
      "rotation": [
        7.321451445108096e-09,
        -0.636618971824646,
        -3.293710193474908e-08,
        0.7711785435676575
      ],
      "scale": [
        0.999999463558197,
        0.9999998807907104,
        1.0000001192092896
      ],
      "translation": [
        9.959330782294273e-08,
        0.08319786936044693,
        -5.231704562902451e-07
      ]
    },
    {
      "matrix": [
        -11.344821265223834,
        4.657951350769128e-07,
        99.35438601904673,
        0.0,
        99.35438565074939,
        6.451381558118522e-06,
        11.344821223169625,
        0.0,
        -6.356887248765937e-06,
        99.99999484285512,
        -1.1946856651420853e-06,
        0.0,
        45.26791011859839,
        1.1558348660400952e-06,
        5.602942954041623e-07,
        1.0
      ],
      "name": "Object_76"
    },
    {
      "mesh": 0,
      "name": "Object_77",
      "skin": 0
    },
    {
      "name": "Wolf3D_Avatar",
      "rotation": [
        0.47078433632850647,
        0.5276003479957581,
        0.5276002287864685,
        -0.47078442573547363
      ],
      "scale": [
        99.99999237060547,
        99.99999237060547,
        100.0
      ],
      "translation": [
        45.267913818359375,
        0.0,
        3.7012392795077176e-07
      ]
    },
    {
      "children": [
        80
      ],
      "name": "Cube01",
      "rotation": [
        -0.7071068286895752,
        0.0,
        0.0,
        0.7071068286895752
      ],
      "scale": [
        100.0,
        100.0,
        100.0
      ],
      "translation": [
        -6.879894256591797,
        78.16890716552734,
        0.0
      ]
    },
    {
      "children": [
        81
      ],
      "name": "root",
      "rotation": [
        -6.617444900424222e-24,
        -0.0,
        0.0,
        1.0
      ]
    },
    {
      "children": [
        82
      ],
      "name": "node0",
      "rotation": [
        -1.817098970004262e-23,
        -4.440892627896218e-16,
        1.0,
        4.371138828673793e-08
      ],
      "scale": [
        0.000857160019222647,
        0.000999999581836164,
        0.0008605180191807449
      ],
      "translation": [
        -0.0420709103345871,
        0.03966159746050835,
        0.10251224040985107
      ]
    },
    {
      "mesh": 1,
      "name": "node0_549_0"
    }
  ],
  "samplers": [
    {
      "magFilter": 9729,
      "minFilter": 9987,
      "wrapS": 10497,
      "wrapT": 10497
    }
  ],
  "scene": 0,
  "scenes": [
    {
      "name": "Sketchfab_Scene",
      "nodes": [
        0
      ]
    }
  ],
  "skins": [
    {
      "inverseBindMatrices": 10,
      "joints": [
        8,
        9,
        10,
        11,
        12,
        13,
        14,
        15,
        16,
        17,
        18,
        19,
        20,
        21,
        22,
        23,
        24,
        25,
        26,
        27,
        28,
        29,
        30,
        31,
        32,
        33,
        34,
        35,
        36,
        37,
        38,
        39,
        40,
        41,
        42,
        43,
        44,
        45,
        46,
        47,
        48,
        49,
        50,
        51,
        52,
        53,
        54,
        55,
        56,
        57,
        58,
        59,
        60,
        61,
        62,
        63,
        64,
        65,
        66,
        67,
        68,
        69,
        70,
        71,
        72,
        73,
        74,
        75
      ],
      "skeleton": 8
    }
  ],
  "textures": [
    {
      "sampler": 0,
      "source": 0
    },
    {
      "sampler": 0,
      "source": 1
    }
  ]
}
